# xmcd
#
# Track frame offsets:
#	150
#	18253
#	43583
#	69093
#	93150
#	103736
#	124002
#	142857
#	169371
#	182451
#	211399
#	231197
#	244452
#	260508
#
# Disc length: 3762 seconds
#
# Revision: 3
# Processed by: cddbd v1.5.2PL0 Copyright (c) Steve Scherf et al.
# Submitted via: EasyCDDAExtractor 10.0.1.1
#
DISCID=ba0eb00e
DTITLE=Various Artist - Songs of Led Zeppelin
DYEAR=2003
DGENRE=Blues
TTITLE0=Eric Gales - Custard Pie
TTITLE1=Matt Tutor, Eric Gales and Derek Trucks - Custard Pie (revisited)
TTITLE2=Alvin 'Youngblood' Hart - Heartbreaker
TTITLE3=Otis Rush and Eric Gales - I Can't Quit You Baby
TTITLE4=Magic Slim, Billy Branch and James Cotton - When the Levee Breaks (part 
TTITLE4=1)
TTITLE5=Magic Slim and James Cotton - When the Levee Breaks (part 2)
TTITLE6=Chris Thomas King - Hey Hey (What Can I Do)
TTITLE7=Clarence 'Gatemouth' Brown - Rock 'n' Roll
TTITLE8=Joe Louis Walker and James Cotton - You Need Love
TTITLE9=Otis Clay - Since I've Been Loving You
TTITLE10=Carl Weathersby - Good Times, Bad Times
TTITLE11=Robert Lockwood, Jr. - Bring It On Home
TTITLE12=Robert Lockwood, Jr. - Bring it On Home (part 2)
TTITLE13=Eric Gales - Trampled Underfoot
EXTD=
EXTT0=
EXTT1=
EXTT2=
EXTT3=
EXTT4=
EXTT5=
EXTT6=
EXTT7=
EXTT8=
EXTT9=
EXTT10=
EXTT11=
EXTT12=
EXTT13=
PLAYORDER=
